<svg width="40" height="40" viewBox="0 0 40 40" fill="none" xmlns="http://www.w3.org/2000/svg"><path d="M24 3a1 1 0 1 0 0 2V3zm-8 2a1 1 0 1 0 0-2v2zm.624 13.59a1 1 0 1 0-1.448-1.38l1.448 1.38zM13.9 20l-.74.673a1 1 0 0 0 1.464.017L13.9 20zm-.26-1.773a1 1 0 1 0-1.48 1.346l1.48-1.346zM20 18a1 1 0 1 0 0 2v-2zm7 2a1 1 0 1 0 0-2v2zm-7 3a1 1 0 1 0 0 2v-2zm7 2a1 1 0 1 0 0-2v2zm-10.376 3.59a1 1 0 1 0-1.448-1.38l1.448 1.38zM13.9 30l-.74.673a1 1 0 0 0 1.464.017L13.9 30zm-.26-1.773a1 1 0 1 0-1.48 1.346l1.48-1.346zM20 28a1 1 0 1 0 0 2v-2zm7 2a1 1 0 1 0 0-2v2zM16.524 13.59a1 1 0 1 0-1.448-1.38l1.448 1.38zM13.8 15l-.74.673a1 1 0 0 0 1.464.017L13.8 15zm-.26-1.773a1 1 0 1 0-1.48 1.346l1.48-1.346zM19.9 13a1 1 0 1 0 0 2v-2zm7.1 2a1 1 0 1 0 0-2v2zm4 20v1a1 1 0 0 0 1-1h-1zM9 35H8a1 1 0 0 0 1 1v-1zM9 8V7a1 1 0 0 0-1 1h1zm22 0h1a1 1 0 0 0-1-1v1zm-7 0v1a1 1 0 0 0 1-1h-1zm-8 0h-1a1 1 0 0 0 1 1V8zm0-7V0a1 1 0 0 0-1 1h1zm8 0h1a1 1 0 0 0-1-1v1zm0 4h10V3H24v2zm10 0c.04 0 .068.003.085.006.017.002.022.005.02.004a.23.23 0 0 1-.075-.054.234.234 0 0 1-.032-.043l-.008-.017c0 .001.003.01.005.027A.556.556 0 0 1 34 5h2c0-.453-.113-.984-.505-1.405C35.091 3.159 34.541 3 34 3v2zm0 0v33h2V5h-2zm0 33a.556.556 0 0 1-.01.104l.008-.017a.237.237 0 0 1 .106-.097A.552.552 0 0 1 34 38v2c.54 0 1.091-.16 1.495-.594.392-.422.505-.953.505-1.406h-2zm0 0H6v2h28v-2zM6 38a.551.551 0 0 1-.085-.006c-.017-.002-.022-.005-.02-.004a.25.25 0 0 1 .106.097l.01.017A.56.56 0 0 1 6 38H3.999c0 .453.113.984.505 1.406.404.434.954.594 1.495.594v-2zm0 0V5H4v33h2zM6 5a.56.56 0 0 1 .01-.104l-.008.017a.23.23 0 0 1-.077.081.154.154 0 0 1-.03.016A.544.544 0 0 1 6 5V3c-.54 0-1.09.16-1.494.595C4.113 4.016 4 4.547 4 5h2zm0 0h10V3H6v2zm9.176 12.21l-2 2.1 1.448 1.38 2-2.1-1.448-1.38zm-.536 2.117l-1-1.1-1.48 1.346 1 1.1 1.48-1.346zM20 20h7v-2h-7v2zm0 5h7v-2h-7v2zm-4.824 2.21l-2 2.1 1.448 1.38 2-2.1-1.448-1.38zm-.536 2.117l-1-1.1-1.48 1.346 1 1.1 1.48-1.346zM20 30h7v-2h-7v2zm-4.924-17.79l-2 2.1 1.448 1.38 2-2.1-1.448-1.38zm-.536 2.117l-1-1.1-1.48 1.346 1 1.1 1.48-1.346zM19.9 15H27v-2h-7.1v2zM31 34H9v2h22v-2zm-21 1V8H8v27h2zM9 9h22V7H9v2zm21-1v27h2V8h-2zm-6-1h-8v2h8V7zm-7 1V1h-2v7h2zm-1-6h8V0h-8v2zm7-1v7h2V1h-2z" fill="#000"></path></svg>