<svg xmlns="http://www.w3.org/2000/svg" width="114.566" height="84.2" viewBox="0 0 114.566 84.2"><g transform="translate(-51.9 -150.35)"><g transform="translate(51.9 150.35)"><path d="M72.612,156.155c-3.815,0-3.815-5.8,0-5.8h73.312c3.815,0,3.815,5.8,0,5.8h-7.267v16.974h17.7a10.127,10.127,0,0,1,10.108,10.108V234.55H51.9V183.236a10.128,10.128,0,0,1,10.109-10.108h17.7V156.155h-7.1Zm71.762,45h10.919v10.919H144.374Zm0-14.844h10.919v10.92H144.374ZM63.632,201.152H74.55v10.919H63.632Zm0-14.844H74.55v10.92H63.632ZM123.2,201.855v26.89h9.653v-72.59H85.512v72.59h9.651v-26.89Zm-5.8,5.8H100.967v21.087H117.4Zm9.839-28.374v14.731H111.175V179.285Zm-5.416,5.415h-5.23v3.9h5.23Zm5.416-24.353v14.73H111.175v-14.73Zm-5.416,5.416h-5.23v3.9h5.23Zm-14.629,13.522v14.731H91.129V179.285Zm-5.418,5.415H96.547v3.9h5.228Zm5.418-24.353v14.73H91.129v-14.73Zm-5.418,5.416H96.547v3.9h5.228Zm36.882,13.167v49.815h22.007V183.236a4.328,4.328,0,0,0-4.306-4.306h-17.7ZM79.711,228.745V178.93h-17.7a4.327,4.327,0,0,0-4.306,4.306v45.509Z" transform="translate(-51.9 -150.35)"/></g></g></svg>