<svg width="40" height="40" viewBox="0 0 40 40" fill="none" xmlns="http://www.w3.org/2000/svg"><path d="M15 8l.74.673a1 1 0 0 0-.033-1.38L15 8zM5 19l-.707.707a1 1 0 0 0 1.447-.034L5 19zm-3-3l-.74-.673a1 1 0 0 0 .033 1.38L2 16zM12 5l.707-.707a1 1 0 0 0-1.447.034L12 5zm13 3l-.707-.707a1 1 0 0 0-.033 1.38L25 8zm10 11l-.74.673a1 1 0 0 0 1.447.034L35 19zm3-3l.707.707a1 1 0 0 0 .033-1.38L38 16zM28 5l.74-.673a1 1 0 0 0-1.447-.034L28 5zM9 28.9l-.707.707.049.046L9 28.9zm0-2.8l-.707-.707L9 26.1zm3.5-3.5l.707.707-.707-.707zm4.9 11.9l-.707-.707a.994.994 0 0 0-.046.049l.753.658zm11.8-5.6l.707-.707a1.075 1.075 0 0 0-.026-.026l-.68.733zM32 26l.753-.659a.994.994 0 0 0-.046-.048L32 26zm-1.793-3.207a1 1 0 0 0-1.414 1.414l1.414-1.414zm-3.1 8.2a1 1 0 0 0-1.414 1.414l1.415-1.414zm1.374-4.126a1 1 0 0 0-1.361 1.466l1.36-1.466zm-6.774 4.426a1 1 0 0 0-1.414 1.414l1.414-1.414zM26 34.7l-.573-.82a.995.995 0 0 0-.027.02l.6.8zm.3-3l-.733.68.026.027.707-.707zm-.567-2.08a1 1 0 0 0-1.466 1.36l1.466-1.36zM6.707 17.293a1 1 0 0 0-1.414 1.414l1.414-1.414zm3.586 6.414a1 1 0 0 0 1.414-1.414l-1.414 1.414zM19 16l-.287-.958a.507.507 0 0 0-.018.006L19 16zm4 1l.707-.707a1.011 1.011 0 0 0-.082-.074L23 17zm-8.74-9.673l-10 11 1.48 1.346 10-11-1.48-1.346zM5.707 18.293l-3-3-1.414 1.414 3 3 1.414-1.414zm-2.967-1.62l10-11-1.48-1.346-10 11 1.48 1.346zm8.553-10.966l3 3 1.414-1.414-3-3-1.414 1.414zM24.26 8.673l10 11 1.48-1.346-10-11-1.48 1.346zm11.447 11.034l3-3-1.414-1.414-3 3 1.414 1.414zm3.033-4.38l-10-11-1.48 1.346 10 11 1.48-1.346zM27.293 4.293l-3 3 1.414 1.414 3-3-1.414-1.414zm-17.585 23.9c-.41-.41-.41-.976 0-1.386l-1.415-1.414c-1.19 1.19-1.19 3.024 0 4.214l1.415-1.414zm0-1.386l3.5-3.5-1.415-1.414-3.5 3.5 1.415 1.414zm3.5-3.5c.409-.41.976-.41 1.385 0l1.415-1.414c-1.191-1.19-3.024-1.19-4.215 0l1.415 1.414zm1.385 0c.41.41.41.976 0 1.386l1.415 1.414c1.19-1.19 1.19-3.024 0-4.214l-1.415 1.414zm0 1.386l-3.5 3.5 1.415 1.414 3.5-3.5-1.415-1.414zm-3.451 3.454a1.13 1.13 0 0 1-1.483 0l-1.317 1.506a3.13 3.13 0 0 0 4.117 0l-1.317-1.506zm1.365 2.846c-.409-.41-.41-.976 0-1.386l-1.414-1.414c-1.19 1.19-1.19 3.023 0 4.214l1.414-1.414zm3.5-4.886c.41-.41.977-.41 1.386 0l1.414-1.414c-1.19-1.19-3.023-1.19-4.214 0l1.415 1.414zm1.386 0c.41.41.41.977 0 1.386l1.414 1.414c1.19-1.19 1.19-3.023 0-4.214l-1.414 1.414zm0 1.386l-3.5 3.5 1.414 1.414 3.5-3.5-1.414-1.414zm-3.545 3.549c-.277.316-.903.388-1.34-.05l-1.415 1.415c1.162 1.163 3.137 1.235 4.26-.048l-1.505-1.318zm1.46 2.751c-.41-.41-.41-.976 0-1.386l-1.415-1.414c-1.19 1.19-1.19 3.024 0 4.214l1.414-1.414zm3.5-4.886c.409-.41.975-.41 1.385 0l1.414-1.414c-1.19-1.19-3.023-1.19-4.214 0l1.414 1.414zm1.385 0c.41.41.41.977 0 1.386l1.414 1.414c1.19-1.19 1.19-3.024 0-4.214l-1.414 1.414zm0 1.386l-3.5 3.5 1.414 1.414 3.5-3.5-1.414-1.414zm-3.546 3.549c-.277.316-.902.389-1.34-.049l-1.414 1.414c1.162 1.163 3.137 1.235 4.26-.048l-1.506-1.317zm11.846-4.235c1.19 1.19 3.024 1.19 4.214 0l-1.414-1.414c-.41.41-.976.41-1.386 0l-1.414 1.414zm4.214 0c1.374-1.373.99-3.187.046-4.265l-1.505 1.317c.456.52.472 1.107.045 1.534l1.414 1.414zm0-4.314l-2.5-2.5-1.414 1.414 2.5 2.5 1.414-1.414zm-7.014 7.114c1.19 1.19 3.024 1.19 4.214 0l-1.414-1.414c-.41.41-.976.41-1.385 0l-1.415 1.414zm4.214 0c1.191-1.19 1.19-3.024 0-4.214l-1.414 1.414c.41.41.41.977 0 1.386l1.415 1.414zm-.026-4.24l-1.4-1.3-1.361 1.466 1.4 1.3 1.36-1.466zm-9.588 4.54l2.4 2.4 1.414-1.414-2.4-2.4-1.414 1.414zm2.4 2.4c.97.97 2.623 1.356 3.907.393l-1.2-1.6c-.316.237-.863.223-1.293-.207l-1.414 1.414zm3.88.412c1.508-1.055 1.676-3.284.434-4.526l-1.414 1.414c.358.359.326 1.129-.166 1.474l1.146 1.638zm.46-4.5l-1.3-1.4-1.466 1.361 1.3 1.4 1.466-1.36zM5.293 18.708l5 5 1.414-1.414-5-5-1.414 1.414zM26 9l-.707-.707h-.001v.001h-.001v.001l-.001.001-.001.001h-.001v.001l-.001.001h-.001V8.3l-.002.001v.001h-.001l-.001.002-.002.002-.002.002-.002.002h-.001a.13.13 0 0 0-.006.007l-.002.001v.002l-.002.001-.002.002a.103.103 0 0 0-.004.004l-.002.002-.001.001-.002.002-.002.001-.001.002-.002.002-.002.002-.002.001c0 .001 0 .002-.002.002l-.001.002-.002.002-.002.002-.002.002-.002.002-.002.002-.002.002-.002.002-.002.002-.002.002-.003.002-.002.003-.002.002-.002.002-.003.002-.002.003-.002.002-.002.002a.272.272 0 0 0-.005.005l-.003.003-.002.002-.003.003-.002.002-.003.003-.002.002-.003.003-.003.003-.003.002-.002.003-.003.003-.003.002-.003.003-.002.003-.003.003a.072.072 0 0 0-.003.003l-.003.003a.073.073 0 0 0-.003.003l-.003.003-.003.003a.853.853 0 0 0-.003.003l-.003.003-.003.003a.1.1 0 0 1-.003.003l-.003.003-.003.003-.003.003-.003.003a.493.493 0 0 0-.007.007l-.003.003a.108.108 0 0 1-.007.007l-.003.003a1956203611.42 1956203611.42 0 0 0-.007.007l-.003.003-.004.004-.003.003-.004.003c0 .002-.002.003-.003.004l-.004.004a1.197 1.197 0 0 0-.003.003l-.004.004-.003.003-.004.004-.004.003c0 .002-.002.003-.003.004a.117.117 0 0 0-.008.008l-.004.003-.003.004-.004.004-.004.004-.004.003c0 .002-.002.003-.003.004a1.407 1.407 0 0 0-.004.004l-.004.004a.717.717 0 0 0-.004.004l-.004.004-.004.004-.004.004-.004.004-.004.004-.004.004a.152.152 0 0 1-.008.008l-.004.004-.004.004-.004.004-.004.004a.16.16 0 0 0-.005.004c0 .002-.002.003-.004.005l-.004.004-.004.004-.004.004-.005.004-.004.005-.004.004a.175.175 0 0 1-.005.004c0 .002-.002.003-.004.005l-.004.004-.005.004c0 .002-.002.003-.004.005l-.004.004-.005.004-.004.005a.167.167 0 0 0-.004.004l-.005.005-.005.004-.004.005a1.916 1.916 0 0 0-.005.004l-.004.005-.005.004-.004.005-.005.004-.004.005-.005.005-.005.004-.004.005-.005.005-.004.004a.173.173 0 0 0-.005.005l-.005.005a.208.208 0 0 0-.01.009c0 .002-.002.003-.004.005a.21.21 0 0 0-.005.005l-.005.004-.004.005-.005.005-.005.005-.005.005-.005.004a.225.225 0 0 0-.004.005l-.005.005a.205.205 0 0 0-.005.005l-.005.005-.005.005-.005.005-.005.005-.005.004-.005.005-.005.005-.005.005-.005.005-.005.005-.005.005-.005.005-.005.005-.005.005a2.416 2.416 0 0 0-.005.005l-.005.006a1.215 1.215 0 0 0-.005.005l-.005.005a2.445 2.445 0 0 0-.01.01l-.005.005a2.467 2.467 0 0 0-.005.005l-.005.005-.006.005-.005.005-.005.006-.005.005-.005.005-.005.005-.006.005-.005.006-.005.005-.005.005a.233.233 0 0 0-.005.005l-.006.005-.005.006-.005.005-.005.005-.006.005a.294.294 0 0 1-.005.006l-.005.005a.265.265 0 0 0-.021.021l-.006.006-.005.005a.265.265 0 0 1-.01.01l-.006.006a.266.266 0 0 1-.016.016l-.006.005a.242.242 0 0 0-.005.006l-.005.005-.006.005-.005.006a2.742 2.742 0 0 0-.016.016l-.005.005-.006.006-.005.005-.006.006-.005.005a2.765 2.765 0 0 1-.006.005l-.005.006-.005.005a.283.283 0 0 0-.006.006l-.005.005-.006.006-.005.005-.006.005-.005.006-.005.005-.006.006a.284.284 0 0 0-.005.005l-.006.006a.284.284 0 0 0-.005.005l-.006.006-.005.005a.284.284 0 0 1-.011.01l-.006.006-.005.006-.005.005-.006.006a2.803 2.803 0 0 1-.005.005l-.006.006-.005.005-.006.006-.005.005-.006.006a.284.284 0 0 0-.01.01l-.006.006-.006.005-.005.006-.006.005-.005.006-.005.005a.284.284 0 0 1-.006.006l-.005.005-.006.006-.005.005a.284.284 0 0 1-.006.005l-.005.006a.284.284 0 0 1-.006.005l-.005.006-.005.005-.006.006-.005.005-.006.006a.283.283 0 0 1-.005.005l-.006.005a2.765 2.765 0 0 1-.005.006l-.005.005-.006.006a2.757 2.757 0 0 1-.005.005l-.006.005-.005.006-.005.005-.006.006-.005.005-.006.005-.005.006-.005.005a.267.267 0 0 1-.006.006l-.005.005a.266.266 0 0 0-.005.005l-.006.006a.242.242 0 0 0-.005.005l-.006.005-.005.006a2.696 2.696 0 0 1-.005.005l-.005.005-.006.006-.005.005-.005.005-.006.006-.005.005-.005.005a.264.264 0 0 1-.006.005l-.005.006-.005.005a.24.24 0 0 1-.005.005l-.006.005-.005.006-.005.005-.005.005-.006.005-.005.006-.005.005-.005.005-.005.005a.231.231 0 0 1-.005.005l-.006.005-.005.006-.005.005a.253.253 0 0 1-.005.005l-.005.005-.005.005-.005.005-.006.005a2.445 2.445 0 0 1-.005.005l-.005.005-.005.006-.005.005-.005.005a2.402 2.402 0 0 1-.015.015l-.005.005-.005.005-.005.005-.005.005-.005.005-.005.005-.005.004-.005.005-.005.005-.004.005-.005.005-.005.005a.205.205 0 0 1-.01.01l-.005.004a2.179 2.179 0 0 1-.014.015l-.005.005-.005.004-.004.005-.005.005a2.119 2.119 0 0 1-.01.01l-.004.004-.005.005-.005.004-.004.005-.005.005-.004.004a.181.181 0 0 1-.01.01l-.004.004a.18.18 0 0 1-.005.004l-.004.005a1.922 1.922 0 0 1-.005.005l-.004.004-.005.004-.004.005-.005.004-.004.005a.183.183 0 0 1-.005.004c0 .002-.002.003-.004.005a.182.182 0 0 1-.004.004l-.005.004-.004.005-.004.004-.005.004-.004.005-.004.004-.005.004c0 .002-.002.003-.004.004l-.004.005-.004.004-.004.004-.005.004c0 .002-.002.003-.004.004l-.004.005-.004.004-.004.004-.004.004-.004.004-.004.004-.004.004-.004.004a8491334680.957 8491334680.957 0 0 1-.008.008l-.004.004-.004.004-.004.004-.004.003c0 .002-.002.003-.003.004l-.004.004-.004.004-.004.004-.004.003c0 .002-.002.003-.003.004l-.004.004a3633073655.432 3633073655.432 0 0 0-.008.007c0 .002-.002.003-.003.004l-.004.004-.003.003-.004.004-.004.003-.003.004-.003.003-.004.004-.003.003-.004.004a3250884297.246 3250884297.246 0 0 0-.01.01l-.003.003-.004.004-.003.003-.003.003-.004.003a2716058231.859 2716058231.859 0 0 1-.006.007l-.003.003-.003.003-.003.003-.004.003-.003.004-.003.003-.003.003-.003.003-.003.002c0 .002-.002.002-.003.003l-.003.003-.002.003-.003.003-.003.003-.003.003-.003.003-.003.002-.002.003-.003.003-.003.002-.002.003-.003.003-.002.002-.003.003-.003.002-.002.003-.003.002-.002.003-.002.002-.003.002-.002.003-.002.002-.003.002-.002.003-.002.002-.002.002-.003.002-.002.003-.002.002-.002.002-.002.002-.002.002-.002.002-.002.002-.002.002-.002.002-.002.002-.001.001-.002.002-.002.002 1.414 1.414.002-.002.002-.002.002-.001.001-.002.002-.002.002-.002.002-.002.002-.002.002-.002.002-.002.002-.002.002-.002.003-.002.002-.003.002-.002.002-.002.002-.002.003-.003.002-.002.003-.002.002-.003.002-.002.003-.002.002-.003.003-.003.002-.002.003-.003.002-.002.003-.003.003-.002.002-.003.003-.003.003-.002a.037.037 0 0 0 .003-.003l.002-.003.003-.003.003-.003.003-.003.003-.002a.08.08 0 0 1 .003-.003l.003-.003.003-.003.003-.003.003-.003a.09.09 0 0 1 .006-.006l.003-.004.003-.003a.092.092 0 0 1 .003-.003l.003-.003.003-.003.004-.003c0-.002.002-.003.003-.004l.003-.003.003-.003a2889930025.631 2889930025.631 0 0 1 .007-.007l.003-.003a.055.055 0 0 1 .004-.004l.003-.003.004-.003c0-.002.002-.003.003-.004l.004-.003c0-.002.002-.003.003-.004l.004-.004a3439172743.957 3439172743.957 0 0 0 .007-.007l.003-.003.004-.004.004-.003.003-.004.004-.004.004-.004a.13.13 0 0 1 .004-.003c0-.002.002-.003.003-.004l.004-.004.004-.004.004-.004.004-.003c0-.002.002-.003.004-.004 0-.002.002-.003.003-.004a.149.149 0 0 1 .008-.008l.004-.004.004-.004.004-.004.004-.004.004-.004.004-.004.004-.004.004-.004.005-.004c0-.002.002-.003.004-.004l.004-.005.004-.004.004-.004.004-.004.005-.004a.172.172 0 0 1 .008-.009l.004-.004.005-.004.004-.005.004-.004.005-.004a.18.18 0 0 1 .004-.005l.004-.004.005-.005.004-.004.005-.004.004-.005.005-.004.004-.005.004-.004.005-.005a.197.197 0 0 1 .005-.004l.004-.005.005-.005a.197.197 0 0 1 .013-.013l.005-.005a3743849765.858 3743849765.858 0 0 0 .01-.01l.004-.004a.104.104 0 0 1 .01-.01l.004-.004.005-.005.005-.004.004-.005.005-.005.005-.005.005-.005.005-.004.004-.005.005-.005.005-.005.005-.005.005-.005.005-.005a.229.229 0 0 1 .01-.01l.005-.004.004-.005.005-.005a.233.233 0 0 1 .005-.005l.005-.005.005-.005.005-.005.005-.005.005-.005.005-.005a.118.118 0 0 0 .005-.005l.006-.005.005-.005.005-.005.005-.005.005-.006.005-.005.005-.005a.253.253 0 0 1 .005-.005l.005-.005.005-.005.006-.005a.253.253 0 0 1 .005-.006l.005-.005.005-.005.005-.005.005-.005.006-.005.005-.006.005-.005.005-.005.006-.005.005-.006.005-.005.005-.005.006-.005.005-.006.005-.005.006-.005.005-.006.005-.005.005-.005.006-.005.005-.006a.267.267 0 0 1 .005-.005l.006-.005a.267.267 0 0 1 .005-.006l.005-.005a.267.267 0 0 1 .006-.005l.005-.006.006-.005.005-.006a.267.267 0 0 1 .005-.005l.006-.005.005-.006.005-.005.006-.006.005-.005.006-.005.005-.006.005-.005.006-.006.005-.005.006-.005.005-.006.006-.005.005-.006.005-.005a.143.143 0 0 0 .006-.006l.005-.005a.283.283 0 0 1 .006-.005l.005-.006.006-.005.005-.006.005-.005.006-.006.005-.005.006-.006.005-.005a.283.283 0 0 1 .006-.005l.005-.006.006-.005.005-.006.006-.005a.283.283 0 0 1 .005-.006l.005-.005.006-.006.005-.005a.283.283 0 0 1 .006-.006l.005-.005a.143.143 0 0 0 .006-.006l.005-.005a.283.283 0 0 1 .006-.005l.005-.006.006-.005.005-.006.006-.005.005-.006.006-.005a.283.283 0 0 1 .005-.006l.005-.005.006-.006.005-.005a.283.283 0 0 1 .006-.005l.005-.006.006-.005.005-.006a.143.143 0 0 0 .006-.005l.005-.006.005-.005.006-.006.005-.005.006-.005.005-.006a.283.283 0 0 1 .006-.005l.005-.006.005-.005.006-.005.005-.006.006-.005.005-.006.005-.005.006-.005.005-.006.005-.005.006-.005.005-.006.006-.005a.267.267 0 0 1 .005-.006l.005-.005.005-.005.006-.006.005-.005a.267.267 0 0 1 .01-.01l.006-.006.005-.005.006-.005a.262.262 0 0 1 .01-.011l.006-.005.005-.006.005-.005.005-.005.006-.005.005-.006.005-.005.005-.005.005-.005.006-.005.005-.006.005-.005.005-.005a.253.253 0 0 1 .005-.005l.006-.005a.253.253 0 0 1 .005-.005l.005-.006.005-.005a.253.253 0 0 1 .005-.005l.005-.005.005-.005.005-.005.005-.005.006-.005a.238.238 0 0 1 .005-.005l.005-.005.005-.005.005-.005.005-.005.005-.005.005-.005.005-.005.005-.005.005-.005.005-.005.005-.005.004-.005.005-.005.005-.005.005-.005.005-.005a.224.224 0 0 1 .005-.005l.005-.005.005-.004.004-.005.005-.005.005-.005.005-.005.005-.004.004-.005a.21.21 0 0 1 .01-.01l.004-.004.005-.005.005-.005a.206.206 0 0 1 .004-.004l.005-.005.005-.004.004-.005.005-.005.004-.004.005-.005.005-.004.004-.005.005-.004.004-.005.005-.005.004-.004.005-.005.004-.004.005-.004.004-.005.004-.004.005-.005.004-.004.004-.004.005-.005.004-.004.004-.004.005-.004.004-.005.004-.004.004-.004.005-.004c0-.002.002-.003.004-.004l.004-.005.004-.004.004-.004.004-.004.004-.004.004-.004.004-.004a.153.153 0 0 1 .004-.004l.004-.004a.149.149 0 0 1 .008-.008.136.136 0 0 1 .008-.008 8072996200.381 8072996200.381 0 0 0 .008-.008l.004-.004.004-.003c0-.002.002-.003.004-.004 0-.002.002-.003.003-.004l.004-.004.004-.004.003-.003.004-.004.004-.004a.626.626 0 0 1 .004-.003c0-.002.002-.003.003-.004l.004-.004.003-.003.004-.004a.116.116 0 0 1 .01-.01l.004-.004.004-.003a.1.1 0 0 1 .003-.004l.003-.003a.109.109 0 0 1 .004-.003c0-.002.002-.003.003-.004l.003-.003a1.031 1.031 0 0 1 .014-.013l.003-.003c0-.002.002-.003.003-.004a.096.096 0 0 0 .003-.003l.003-.003.003-.003.003-.003.003-.003a.866.866 0 0 1 .006-.006l.003-.003a.832.832 0 0 1 .003-.003l.003-.003.003-.003.003-.003.003-.003.003-.003.003-.002.002-.003.003-.003.003-.003.002-.002.003-.003.003-.002.002-.003.003-.003.002-.002.003-.003.002-.002.003-.003.002-.002.003-.002.002-.003.002-.002.003-.003.002-.002.002-.002.003-.002c0-.001 0-.002.002-.002l.002-.003.002-.002.002-.002.002-.002a.2.2 0 0 1 .002-.002l.002-.002.002-.002.002-.002.002-.002.002-.002.002-.002a.155.155 0 0 1 .003-.003l.002-.002.002-.002.002-.001.001-.002.002-.002.001-.001.002-.002.002-.001.001-.002.002-.001v-.002l.002-.001.002-.001.001-.002.001-.001.002-.001v-.002a.134.134 0 0 1 .004-.003l.001-.001.001-.001.001-.001.001-.001.001-.001.001-.001h.001v-.002h.002v-.001l.001-.001.002-.001v-.001l.001-.001.001-.001.001-.001h.001v-.001h.001L26 9zm-2.707 1.293c.173-.173.343-.193.27-.176a1.45 1.45 0 0 1-.208.026c-.234.018-.56.02-.949.007-.772-.024-1.67-.096-2.33-.147l-.153 1.994c.641.05 1.593.127 2.42.152.412.013.823.015 1.164-.011.169-.013.35-.035.52-.075.121-.029.432-.108.68-.356l-1.414-1.414zm-3.216-.29c-.515-.04-1.053.08-1.527.23-.489.155-.997.373-1.478.6-.482.229-.961.478-1.388.7-.437.229-.805.422-1.103.559l.838 1.816c.352-.163.771-.382 1.19-.601.43-.225.876-.456 1.319-.665.444-.21.86-.386 1.228-.503.383-.121.632-.152.767-.142l.154-1.994zm-5.496 2.089c-.692.32-1.356.747-1.664 1.414-.354.768-.096 1.494.235 2.024l1.696-1.06a.699.699 0 0 1-.1-.208c0-.002.001.01-.001.03a.181.181 0 0 1-.014.052c-.01.02.002-.019.112-.106.111-.088.292-.2.574-.33l-.838-1.816zm-1.429 3.438c.427.684 1.31 1.242 2.323 1.531 1.06.303 2.386.353 3.83-.109l-.61-1.904c-1.056.338-1.98.288-2.67.09-.737-.21-1.104-.552-1.177-.668l-1.696 1.06zm6.135 1.428c.677-.203 1.416-.047 2.065.235a5.393 5.393 0 0 1 1.018.584l.008.006h-.001v-.001h-.001L23 17c.625-.78.624-.781.624-.781l-.002-.002-.003-.002-.009-.007-.026-.02a6.368 6.368 0 0 0-.387-.27 7.42 7.42 0 0 0-1.05-.56c-.85-.369-2.111-.713-3.434-.316l.574 1.916zm3.006.75l8 8 1.414-1.415-8-8-1.414 1.414zm-9-8l3 3 1.414-1.415-3-3-1.414 1.414zm20 7.585l-4.5 4.5 1.414 1.414 4.5-4.5-1.414-1.414z" fill="#000"></path></svg>