<svg width="40" height="40" viewBox="0 0 40 40" fill="none" xmlns="http://www.w3.org/2000/svg"><path d="M19.4 33.6l-.71.704a.967.967 0 0 0 .035.033l.676-.737zM6.7 20.8l.71-.704-.002-.003-.707.707zm0-4.2l.677.737.03-.03-.706-.707zM19.4 3.9l-.706-.707.707.707zm4.2 0l-.736.676.03.031.707-.707zm12.7 12.7l-.706.707.707-.707zm0 4.2l-.675-.737a.96.96 0 0 0-.037.036l.713.701zM23.7 33.6l.677.737.036-.036-.712-.701zm-2.093-21.932l.707-.707a1 1 0 0 0-1.414 0l.707.707zm7.071 7.07l.707.708a1 1 0 0 0 0-1.414l-.707.707zm-7.07 7.072l-.708.707a1 1 0 0 0 1.415 0l-.708-.707zm-7.072-7.071l-.707-.707a1 1 0 0 0 0 1.414l.707-.707zm-4.243 5.657l.707-.707a1 1 0 0 0-1.414 0l.707.707zm5.657 5.656l.707.708a1 1 0 0 0 0-1.415l-.707.707zm-2.829 2.829l-.707.707a1 1 0 0 0 1.415 0l-.708-.707zm-5.656-5.657l-.708-.707a1 1 0 0 0 0 1.414l.708-.707zm-2.45 5.278l-.706-.707a1 1 0 0 0 0 1.414l.707-.707zm3.819-3.818l.707-.707a1 1 0 0 0-1.414 0l.707.707zm2.828 2.828l.707.707a1 1 0 0 0 0-1.414l-.707.707zM7.844 35.33l-.707.708a1 1 0 0 0 1.414 0l-.707-.708zM3.6 33.9l-.707-.707.707.707zM5 32.5l.707-.707a1 1 0 0 0-1.414 0L5 32.5zm2.8 2.8l.707.707a1 1 0 0 0 0-1.414L7.8 35.3zm-1.4 1.4l.707.707L6.4 36.7zm13.71-3.804l-12.7-12.8-1.42 1.408 12.7 12.8 1.42-1.408zM7.409 20.093c-.827-.828-.781-2.069-.031-2.756l-1.352-1.474c-1.65 1.513-1.604 4.072-.031 5.644l1.414-1.414zm0-2.786l12.7-12.7-1.414-1.414-12.7 12.7 1.414 1.414zm12.7-12.7c.827-.827 2.068-.781 2.756-.031l1.474-1.352c-1.513-1.65-4.072-1.604-5.644-.031l1.414 1.414zm2.786 0l12.7 12.7 1.414-1.414-12.7-12.7-1.414 1.414zm12.7 12.7c.827.828.78 2.069.031 2.756l1.352 1.474c1.65-1.513 1.604-4.072.03-5.644l-1.413 1.414zm-.006 2.792l-12.6 12.8 1.425 1.402 12.6-12.8-1.425-1.402zM23.025 32.862c-.818.75-2.13.75-2.948 0l-1.352 1.474c1.582 1.45 4.07 1.45 5.651 0l-1.35-1.474zM20.9 12.375l7.071 7.07 1.415-1.413-7.072-7.071-1.414 1.414zm7.071 5.657l-7.07 7.07 1.413 1.415 7.072-7.071-1.415-1.414zm-5.657 7.07l-7.07-7.07-1.415 1.414 7.071 7.07 1.415-1.413zm-7.07-5.656l7.07-7.071L20.9 10.96l-7.07 7.07 1.413 1.415zm-5.658 5.657l5.657 5.657 1.414-1.415L11 23.69l-1.414 1.414zm5.657 4.242l-2.829 2.829 1.415 1.414 2.828-2.828-1.414-1.415zm-1.415 2.829l-5.656-5.657-1.415 1.414 5.657 5.657 1.415-1.414zM8.172 27.93L11 25.103l-1.414-1.414-2.829 2.828 1.415 1.414zm-2.45 5.278l3.82-3.818-1.415-1.414-3.818 3.818 1.414 1.414zm2.405-3.818l2.828 2.828 1.415-1.414-2.829-2.828-1.414 1.414zm2.828 1.414l-3.818 3.818 1.414 1.415 3.819-3.819-1.415-1.414zm-2.404 3.818l-2.828-2.828-1.414 1.414 2.828 2.828 1.414-1.414zm-4.244 1.37c-.41-.41-.41-.976 0-1.386l-1.414-1.414c-1.19 1.19-1.19 3.024 0 4.214l1.414-1.414zm0-1.386l1.4-1.4-1.414-1.414-1.4 1.4 1.414 1.414zm-.014-1.4l2.8 2.8 1.414-1.414-2.8-2.8-1.414 1.414zm2.8 1.386l-1.4 1.4 1.414 1.414 1.4-1.4-1.414-1.414zm-1.4 1.4c-.41.41-.976.41-1.386 0l-1.414 1.414c1.19 1.19 3.024 1.19 4.214 0l-1.414-1.414z" fill="#000"></path></svg>