<svg xmlns="http://www.w3.org/2000/svg" width="84.2" height="84.2" viewBox="0 0 84.2 84.2"><g transform="translate(-5.9 -5.9)"><path d="M48,5.9A42.166,42.166,0,0,1,90.1,48.1,42.1,42.1,0,0,1,77.8,77.9,42.442,42.442,0,0,1,48,90.1,42.1,42.1,0,1,1,48,5.9ZM20,73A27.381,27.381,0,0,1,46.7,50.5h2.6a26.9,26.9,0,0,1,19.1,8A27.234,27.234,0,0,1,76,73a37.5,37.5,0,1,0-56,0Zm51.8,4a23.076,23.076,0,0,0-6.6-15.3,22.37,22.37,0,0,0-15.9-6.6H46.7a22.37,22.37,0,0,0-15.9,6.6A22.668,22.668,0,0,0,24.2,77,37.588,37.588,0,0,0,48,85.5,37.027,37.027,0,0,0,71.8,77ZM48,16a16.562,16.562,0,0,1,11.7,4.8A16.546,16.546,0,1,1,31.5,32.5a16.562,16.562,0,0,1,4.8-11.7A17,17,0,0,1,48,16Zm8.4,8.1A11.707,11.707,0,0,0,48,20.6a11.538,11.538,0,0,0-8.4,3.5,11.707,11.707,0,0,0-3.5,8.4,11.538,11.538,0,0,0,3.5,8.4A12.128,12.128,0,0,0,48,44.4,11.95,11.95,0,0,0,59.9,32.5a11.538,11.538,0,0,0-3.5-8.4Z"/></g></svg>